<svg version="1.1" xmlns="http://www.w3.org/2000/svg" width="400" height="400" viewBox="36.51416778564453 16.631999969482422 247.27374267578125 339.5583610534668"><path d="M166.32 16.632h0.832c-0.008 0.711 -0.017 1.422 -0.027 2.156C166.751 54.05 172.912 79.867 197.921 105.613l2.161 2.261c4.163 4.275 8.546 8.085 13.208 11.808 2.259 1.867 4.264 3.867 6.289 5.979 1.828 1.766 3.762 3.311 5.757 4.886 4.871 3.961 9.351 8.223 13.78 12.669a577.132 577.132 0 0 0 3.819 3.781C248.749 152.778 253.773 158.882 258.628 165.489l1.602 2.137c19.429 26.146 26.81 58.779 22.255 90.847 -1.662 10.562 -4.529 20.337 -8.888 30.093l-1.166 2.615C267.074 302.504 259.173 312.969 250.312 321.83c-7.017 -0.314 -13.922 -2.665 -20.53 -4.886l-2.923 -0.981c-14.621 -5.073 -28.796 -11.728 -41.412 -20.744l-2.534 -1.774c-28.348 -20.491 -47.57 -50.503 -53.482 -85.015C119.52 146.334 137.41 71.838 166.32 16.632" fill="#6FB2E1"/><path d="M130.562 59.044c1.09 3.272 0.081 5.276 -1.036 8.381l-1.27 3.667 -0.684 1.954C115.989 106.252 108.153 141.023 107.277 176.3l-0.055 2.2c-0.864 41.259 9.701 80.235 38.694 110.686C153.081 296.559 160.3 303.554 168.815 309.356l1.44 0.993c17.153 11.701 36.414 19.983 56.833 23.713 1.653 0.309 3.293 0.685 4.929 1.074l0.832 1.663c-29.09 19.087 -65.753 23.181 -99.316 16.213C100.083 345.652 70.998 325.714 52.391 296.882c-16.488 -26.362 -19.18 -58.05 -12.448 -87.9 11.392 -47.482 40.902 -90.699 71.89 -127.633a536.383 536.383 0 0 0 5.112 -6.245C121.383 69.667 125.976 64.36 130.562 59.044" fill="#3F4893"/><path d="M130.562 59.044c1.005 3.013 0.452 3.859 -0.832 6.653h-3.326v1.663h-1.663l-0.571 1.404C122.778 71.212 120.954 72.917 118.919 74.844c0 -3.515 1.563 -4.447 3.95 -6.965 2.696 -2.862 5.277 -5.731 7.692 -8.836" fill="#505B9D"/><path d="" fill="#6672B0"/></svg>