<?xml version="1.0" encoding="UTF-8"?>
<svg version="1.1" xmlns="http://www.w3.org/2000/svg" width="1209" height="481">
<path d="M0 0 C0.33 0 0.66 0 1 0 C0.98952637 0.85529297 0.97905273 1.71058594 0.96826172 2.59179688 C0.51728028 44.99546946 7.92590013 76.03987009 38 107 C38.85722656 107.8971875 39.71445312 108.794375 40.59765625 109.71875 C45.60448749 114.86047209 50.87500765 119.44143968 56.48046875 123.91796875 C59.19670296 126.16254678 61.6065187 128.56874803 64.04199219 131.10717773 C66.23989376 133.23190727 68.56631517 135.08896756 70.96484375 136.984375 C76.82231397 141.74701811 82.2103887 146.87169662 87.53442383 152.21875 C89.05625973 153.74374677 90.59098211 155.25488202 92.12695312 156.765625 C99.11972411 163.71462025 105.16137553 171.05457874 111 179 C111.63558838 179.84788086 112.27117676 180.69576172 112.92602539 181.56933594 C136.28936915 213.0103737 145.1646363 252.25183895 139.6875 290.8125 C137.68948439 303.51417068 134.24208541 315.26771361 129 327 C128.53722656 328.03769531 128.07445312 329.07539063 127.59765625 330.14453125 C121.15559937 343.76029136 111.65501812 356.34498188 101 367 C92.56167737 366.62342087 84.25859954 363.79504927 76.3125 361.125 C75.15274658 360.73570312 73.99299316 360.34640625 72.7980957 359.9453125 C55.21645436 353.84529192 38.1710089 345.84210845 23 335 C21.99453125 334.29617188 20.9890625 333.59234375 19.953125 332.8671875 C-14.13597713 308.22765513 -37.24973084 272.13610498 -44.35913086 230.63647461 C-56.27680695 155.96676262 -34.76527261 66.38594769 0 0 Z " fill="#6FB2E1" transform="translate(230,20)"/>
<path d="M0 0 C1.31133041 3.93399122 0.09723265 6.34354804 -1.24609375 10.078125 C-1.75552706 11.54803848 -2.26454183 13.01809706 -2.77319336 14.48828125 C-3.04485321 15.26381348 -3.31651306 16.0393457 -3.59640503 16.83837891 C-17.52287305 56.76890424 -26.94521205 98.57994478 -28 141 C-28.03287109 142.30952637 -28.03287109 142.30952637 -28.06640625 143.64550781 C-29.10473863 193.26049026 -16.40103504 240.12852752 18.46484375 276.74609375 C27.08024968 285.61152355 35.75885487 294.0225165 46 301 C46.57153809 301.39413086 47.14307617 301.78826172 47.73193359 302.19433594 C68.35867772 316.26434474 91.51955758 326.22251179 116.07324219 330.70874023 C118.06060767 331.081003 120.03271285 331.53311416 122 332 C122.33 332.66 122.66 333.32 123 334 C88.01862875 356.95191236 43.93177897 361.87479298 3.57275391 353.49609375 C-36.64992448 344.64694063 -71.62516879 320.66899856 -94 286 C-113.82710614 254.29937973 -117.06353244 216.19514524 -108.96875 180.30078125 C-95.26995933 123.2025989 -59.784505 71.2353714 -22.52197266 26.82177734 C-20.44779374 24.33901779 -18.41159115 21.82613052 -16.375 19.3125 C-11.0366102 12.77322478 -5.51404529 6.39106773 0 0 Z " fill="#3F4893" transform="translate(187,71)"/>
<path d="M0 0 C7.53984634 -0.05124009 15.07964683 -0.08595719 22.61962891 -0.10986328 C25.1779142 -0.11984275 27.73618833 -0.13343109 30.29443359 -0.15087891 C65.05198251 -0.38178095 65.05198251 -0.38178095 79.8125 4.25 C80.87029663 4.57532715 80.87029663 4.57532715 81.94946289 4.90722656 C96.73642683 9.65879125 109.90320341 19.4179977 117.24609375 33.3671875 C124.56524217 50.15028974 123.23109572 69.52618623 116.8125 86.375 C114.09166027 92.36896933 110.46499677 97.19279545 106 102 C105.35546875 102.69867188 104.7109375 103.39734375 104.046875 104.1171875 C81.5225207 126.21168771 46.37453024 124.31778899 17.3125 124.125 C14.6529982 124.11378259 11.99349873 124.10582279 9.33398438 124.09765625 C2.88923768 124.07586518 -3.55535537 124.04174894 -10 124 C-10.10538808 116.55363084 -9.81909427 109.22724922 -9.18969727 101.80883789 C-9.10352142 100.75051758 -9.01734558 99.69219727 -8.92855835 98.60180664 C-8.64561928 95.14170773 -8.35620518 91.68218683 -8.06640625 88.22265625 C-7.86672146 85.80417804 -7.66733964 83.38567481 -7.46824646 80.96714783 C-7.05159611 75.91787943 -6.63182468 70.86888337 -6.2097168 65.82006836 C-5.66856052 59.3451846 -5.13442465 52.8697448 -4.60249424 46.39409733 C-4.19236068 41.40886223 -3.77895879 36.42390246 -3.3645153 31.43902397 C-3.16624631 29.0504455 -2.96890122 26.66179016 -2.77249336 24.27305794 C-2.49815697 20.94355712 -2.21952662 17.61444343 -1.93969727 14.28540039 C-1.81885521 12.80404854 -1.81885521 12.80404854 -1.6955719 11.29277039 C-1.61846985 10.3860257 -1.5413678 9.47928101 -1.46192932 8.5450592 C-1.39648202 7.7592299 -1.33103472 6.97340059 -1.26360416 6.16375828 C-1.00516039 4.04235834 -0.56529381 2.05889658 0 0 Z M23 15 C22.08293263 25.92682401 21.16989842 36.85397694 20.26194 47.78156185 C19.8401649 52.85625015 19.41702774 57.93081703 18.99072266 63.00512695 C18.57898139 67.90669529 18.17089006 72.80855535 17.76527405 77.71063423 C17.61028133 79.57612398 17.45399778 81.44150698 17.29637146 83.30677605 C17.07496955 85.92942105 16.85825795 88.55241617 16.64257812 91.17553711 C16.57712296 91.9379924 16.51166779 92.70044769 16.44422913 93.48600769 C16.02437903 98.67237853 15.94707297 103.79644 16 109 C21.1370704 109.10032587 26.27354682 109.17214084 31.41137695 109.21972656 C33.15203813 109.23960335 34.89263474 109.26671465 36.63305664 109.30175781 C51.3350437 109.58994897 65.49219044 108.68668647 78 100 C78.93392578 99.35611328 78.93392578 99.35611328 79.88671875 98.69921875 C89.18396675 91.53973276 93.42084612 80.34924609 95 69 C96.22555355 55.35059464 95.97989182 42.39472255 87.5625 31 C79.22373522 21.2186641 68.52049111 16.96736747 56 15 C50.23730283 14.56791421 44.46036436 14.7121298 38.6875 14.8125 C37.1569144 14.82759325 35.62631419 14.84127335 34.09570312 14.85351562 C30.3968247 14.8861097 26.69851055 14.93762782 23 15 Z " fill="#252625" transform="translate(553,186)"/>
<path d="M0 0 C7.45082179 -0.04673388 14.90162802 -0.08207462 22.35256386 -0.10362434 C25.813872 -0.11397707 29.27507847 -0.12797654 32.73632812 -0.15087891 C36.73308175 -0.17715331 40.72973181 -0.18654293 44.7265625 -0.1953125 C45.94485748 -0.20563507 47.16315247 -0.21595764 48.41836548 -0.22659302 C64.56067763 -0.22865924 81.89174832 1.47561845 94.1640625 13.0390625 C102.02994592 21.36259732 103.63105518 27.80851456 103.3359375 39.25 C102.38772859 49.83465765 97.85089154 56.96510663 90 64 C74.2061698 76.01985441 54.04515102 76.2346531 35.0625 76.625 C33.49282025 76.66332052 31.92315835 76.70237949 30.35351562 76.7421875 C26.56916101 76.83659681 22.78470961 76.92115856 19 77 C18.95210831 77.57407089 18.90421661 78.14814178 18.85487366 78.73960876 C18.35732464 84.69300205 17.85349478 90.64583963 17.34594727 96.59838867 C17.15714607 98.82253504 16.96996867 101.04681985 16.78442383 103.27124023 C16.51806534 106.46114953 16.24594749 109.65052189 15.97265625 112.83984375 C15.89032242 113.84087631 15.80798859 114.84190887 15.72315979 115.87327576 C15.64315231 116.79415482 15.56314484 117.71503387 15.48071289 118.66381836 C15.41187393 119.47878281 15.34303497 120.29374725 15.27210999 121.13340759 C15 123 15 123 14 124 C6.00139854 124.51899322 -2.03632422 123.69123344 -10 123 C-9.3764013 108.64875982 -8.38170893 94.35327234 -7.1875 80.0390625 C-7.01175363 77.90727432 -6.8362208 75.77546853 -6.66088867 73.64364624 C-6.29648434 69.2215682 -5.92986236 64.79968169 -5.56152344 60.37792969 C-5.09020854 54.71835493 -4.62409006 49.05836623 -4.15953064 43.39823341 C-3.7993773 39.01604754 -3.43677192 34.6340673 -3.07339478 30.25214767 C-2.90046629 28.16385013 -2.72823716 26.07549455 -2.55673218 23.98707962 C-2.31762085 21.08053162 -2.07526677 18.17427179 -1.83203125 15.26806641 C-1.76239166 14.41403732 -1.69275208 13.56000824 -1.6210022 12.68009949 C-1.2599798 8.40901045 -0.78100642 4.22014798 0 0 Z M23 15 C22.56798077 20.10418469 22.14092032 25.20875235 21.71826172 30.3137207 C21.57408505 32.04690487 21.42860196 33.77998091 21.28173828 35.51293945 C21.06972292 38.01746109 20.86255695 40.52234618 20.65625 43.02734375 C20.59062866 43.79022202 20.52500732 44.55310028 20.45739746 45.33909607 C20.03244527 50.57536352 19.94529781 55.74631041 20 61 C25.08620644 61.0997145 30.17182992 61.17186281 35.25878906 61.21972656 C36.98512702 61.23970285 38.71139853 61.26689372 40.4375 61.30175781 C54.20700993 61.66248697 54.20700993 61.66248697 67 57 C68.11375 56.401875 69.2275 55.80375 70.375 55.1875 C74.81586942 51.48677548 77.44429417 46.83491123 78 41 C78.47420502 34.84718982 78.13751298 29.43994646 75 24 C69.63067956 18.23780245 62.70431491 15.08827008 54.81323242 14.67871094 C49.99847422 14.55860236 45.18930063 14.64991844 40.375 14.75 C38.68621916 14.77010067 36.99741515 14.78834512 35.30859375 14.8046875 C31.20514889 14.84838985 27.10283489 14.91721736 23 15 Z " fill="#252625" transform="translate(434,186)"/>
<path d="M0 0 C0.87537415 0.00359528 1.75074829 0.00719055 2.65264893 0.01089478 C4.02812141 0.01067574 4.02812141 0.01067574 5.43138123 0.01045227 C8.47773564 0.01115177 11.52402973 0.01894589 14.57037354 0.02676392 C16.67644721 0.02862796 18.78252132 0.03005193 20.88859558 0.03105164 C26.44364612 0.03487786 31.99867069 0.04470903 37.55371094 0.05575562 C43.21746469 0.0659675 48.88122262 0.07054878 54.54498291 0.07559204 C65.66673914 0.0863312 76.78847606 0.10340887 87.91021729 0.12442017 C89.3185719 2.9411294 88.81022277 5.06895263 88.53521729 8.18692017 C88.44498291 9.27102173 88.35474854 10.35512329 88.26177979 11.47207642 C87.91021729 14.12442017 87.91021729 14.12442017 86.91021729 15.12442017 C84.7321601 15.21871359 82.55100449 15.24184555 80.37091064 15.23794556 C79.68801468 15.23809158 79.00511871 15.23823761 78.30152893 15.23838806 C76.03434114 15.23768893 73.76723455 15.22989657 71.50006104 15.22207642 C69.93207341 15.22021224 68.36408521 15.21878833 66.7960968 15.2177887 C62.66145226 15.21396351 58.52684263 15.20413323 54.39221191 15.19308472 C50.1762133 15.18287061 45.96020907 15.17829108 41.74420166 15.17324829 C33.46619081 15.16251095 25.18820839 15.14543453 16.91021729 15.12442017 C16.86123291 16.19176392 16.81224854 17.25910767 16.76177979 18.35879517 C16.19046346 29.99359273 15.15534386 41.54353416 13.91021729 53.12442017 C15.03441322 53.12108925 15.03441322 53.12108925 16.18132019 53.11769104 C23.23004019 53.09768837 30.27875043 53.08244616 37.32749081 53.07260799 C40.95167688 53.06738015 44.57583959 53.06028429 48.20001221 53.04898071 C51.69481703 53.03814832 55.18959932 53.03214259 58.68441963 53.02954292 C60.67261117 53.02678466 62.6607936 53.01897329 64.64897156 53.01112366 C65.85014114 53.01104813 67.05131073 53.0109726 68.28887939 53.01089478 C69.88438881 53.00756386 69.88438881 53.00756386 71.51213074 53.00416565 C73.91021729 53.12442017 73.91021729 53.12442017 74.91021729 54.12442017 C74.84607069 56.29374141 74.70922046 58.4611374 74.53521729 60.62442017 C74.44498291 61.81035767 74.35474854 62.99629517 74.26177979 64.21817017 C73.91021729 67.12442017 73.91021729 67.12442017 72.91021729 68.12442017 C71.00777967 68.21833313 69.1018327 68.24185675 67.19708252 68.23794556 C65.97589218 68.23787003 64.75470184 68.23779449 63.49650574 68.23771667 C62.15394043 68.23260928 60.81137553 68.22739327 59.46881104 68.22207642 C58.10260571 68.22021216 56.73639971 68.21878829 55.37019348 68.2177887 C51.76820033 68.21396411 48.16624729 68.20413434 44.56427002 68.19308472 C40.89117984 68.18286933 37.21808319 68.1782908 33.54498291 68.17324829 C26.33337606 68.16251201 19.12180228 68.1454363 11.91021729 68.12442017 C11.9148851 68.98590668 11.91955292 69.84739319 11.92436218 70.73498535 C11.96048382 82.14411159 11.96048382 82.14411159 11.50787354 87.75723267 C11.42215088 88.82973267 11.33642822 89.90223267 11.24810791 91.00723267 C11.157229 92.07715454 11.0663501 93.14707642 10.97271729 94.24942017 C10.88570557 95.35801392 10.79869385 96.46660767 10.70904541 97.60879517 C10.04231096 105.72813914 10.04231096 105.72813914 8.91021729 109.12442017 C33.00021729 109.12442017 57.09021729 109.12442017 81.91021729 109.12442017 C83.3185719 111.9411294 82.81022277 114.06895263 82.53521729 117.18692017 C82.44498291 118.27102173 82.35474854 119.35512329 82.26177979 120.47207642 C81.91021729 123.12442017 81.91021729 123.12442017 80.91021729 124.12442017 C77.89671491 124.21971628 74.90617623 124.2499392 71.89239502 124.23794556 C70.94615265 124.23809158 69.99991028 124.23823761 69.0249939 124.23838806 C65.88124337 124.23768853 62.73755128 124.22989425 59.59381104 124.22207642 C57.42047661 124.22021238 55.24714176 124.21878841 53.07380676 124.2177887 C47.34120533 124.21396238 41.60862906 124.20413113 35.8760376 124.19308472 C30.0313145 124.18287303 24.18658735 124.1782916 18.34185791 124.17324829 C6.86463329 124.16250896 -4.61257263 124.14543119 -16.08978271 124.12442017 C-17.1242185 121.0211128 -17.1044281 119.42400303 -16.83712769 116.21472168 C-16.75580597 115.20234436 -16.67448425 114.18996704 -16.59069824 113.14691162 C-16.49516663 112.03717987 -16.39963501 110.92744812 -16.3012085 109.78408813 C-16.20542511 108.61482788 -16.10964172 107.44556763 -16.01095581 106.24087524 C-15.74687532 103.0340673 -15.47722403 99.82778847 -15.2048173 96.62167883 C-14.92110129 93.26990056 -14.64369529 89.91759944 -14.36538696 86.56536865 C-13.89716459 80.93770939 -13.42393513 75.31048809 -12.94769287 69.6835022 C-12.39650271 63.17030685 -11.85296647 56.65650735 -11.31357205 50.14232528 C-10.79509546 43.88263321 -10.27148266 37.62338132 -9.74541855 31.36432266 C-9.52131148 28.6970046 -9.29897711 26.0295474 -9.07803726 23.36196518 C-8.76886969 19.64290509 -8.45384624 15.92438829 -8.137146 12.20596313 C-8.04566284 11.09218292 -7.95417969 9.97840271 -7.85992432 8.83087158 C-7.77296295 7.82413391 -7.68600159 6.81739624 -7.59640503 5.78015137 C-7.52228456 4.90004835 -7.4481641 4.01994534 -7.37179756 3.11317253 C-6.76235972 -1.18454782 -3.6957252 0.00641215 0 0 Z " fill="#282928" transform="translate(701.0897827148438,185.87557983398438)"/>
<path d="M0 0 C26.73 0 53.46 0 81 0 C80 14 80 14 79 15 C77.15881971 15.09381302 75.31402359 15.11743954 73.47045898 15.11352539 C72.28931015 15.11344986 71.10816132 15.11337433 69.89122009 15.11329651 C68.6058284 15.10813522 67.32043671 15.10297394 65.99609375 15.09765625 C64.0338662 15.09553383 64.0338662 15.09553383 62.03199768 15.09336853 C58.54837141 15.0895441 55.06478661 15.07971446 51.58117676 15.06866455 C48.02873292 15.05844882 44.47628241 15.05387056 40.92382812 15.04882812 C33.94920168 15.03809212 26.97460283 15.0210166 20 15 C20.01142029 16.06581047 20.01142029 16.06581047 20.02307129 17.15315247 C20.05651244 22.55182275 19.94906267 27.82706879 19.34375 33.19921875 C19.22193359 34.30869873 19.10011719 35.41817871 18.97460938 36.5612793 C18.81798828 37.92293213 18.66136719 39.28458496 18.5 40.6875 C18.005 45.080625 17.51 49.47375 17 54 C33.83 54 50.66 54 68 54 C67 68 67 68 66 69 C64.40389018 69.09333705 62.80366572 69.11745372 61.20483398 69.11352539 C60.18385117 69.11344986 59.16286835 69.11337433 58.11094666 69.11329651 C57.0005452 69.10813522 55.89014374 69.10297394 54.74609375 69.09765625 C53.61551041 69.0962413 52.48492706 69.09482635 51.32008362 69.09336853 C47.69252935 69.08775019 44.06503576 69.07519458 40.4375 69.0625 C37.98502693 69.05748736 35.5325529 69.05292405 33.08007812 69.04882812 C27.05336455 69.0377748 21.02668661 69.02101884 15 69 C15.01015137 69.59888031 15.02030273 70.19776062 15.03076172 70.81478882 C15.09066381 77.13056253 14.72865429 83.31745744 14.125 89.6015625 C13.99182373 91.04527725 13.99182373 91.04527725 13.85595703 92.51815796 C13.57491686 95.55418827 13.28757099 98.58958206 13 101.625 C12.80687219 103.69917973 12.61416 105.77339821 12.421875 107.84765625 C11.95271594 112.89889771 11.47790571 117.94957888 11 123 C7.87751858 123.68937901 4.98967043 124.12205855 1.79296875 124.09765625 C1.04208984 124.09443359 0.29121094 124.09121094 -0.48242188 124.08789062 C-1.63581055 124.07532227 -1.63581055 124.07532227 -2.8125 124.0625 C-3.99489258 124.05573242 -3.99489258 124.05573242 -5.20117188 124.04882812 C-7.13414761 124.03711312 -9.06708393 124.01917998 -11 124 C-11.12483587 116.92022771 -10.76206022 109.98480893 -10.09790039 102.93823242 C-10.00197098 101.88166443 -9.90604156 100.82509644 -9.8072052 99.73651123 C-9.49180804 96.27573938 -9.16989294 92.81560992 -8.84765625 89.35546875 C-8.62552909 86.93796174 -8.4037273 84.52042482 -8.18223572 82.1028595 C-7.71849062 77.05178587 -7.25166188 72.00101004 -6.7824707 66.95043945 C-6.18120483 60.47675925 -5.58636141 54.0025089 -4.99364567 47.52804089 C-4.53677628 42.54277816 -4.07718455 37.55776947 -3.61669731 32.57283974 C-3.39632977 30.18507524 -3.17665621 27.7972466 -2.95768929 25.40935326 C-2.65162593 22.07758011 -2.34205975 18.74615101 -2.03149414 15.41479492 C-1.94158203 14.42925125 -1.85166992 13.44370758 -1.7590332 12.42829895 C-1.673517 11.51873444 -1.58800079 10.60916992 -1.49989319 9.67204285 C-1.42707154 8.88583652 -1.3542499 8.09963018 -1.27922153 7.28959942 C-0.98057855 4.84074529 -0.48381792 2.41908958 0 0 Z " fill="#282828" transform="translate(840,186)"/>
<path d="M0 0 C6.27 0 12.54 0 19 0 C19 5.58995925 18.94800124 10.60691711 18.35742188 16.08032227 C18.28914688 16.72537216 18.22087189 17.37042206 18.15052795 18.03501892 C17.92774927 20.12932271 17.69832802 22.22283792 17.46875 24.31640625 C17.3113936 25.78323499 17.15445886 27.25010903 16.9979248 28.71702576 C16.58783178 32.5495027 16.17206983 36.38134343 15.75506592 40.21307373 C15.32933391 44.13451481 14.90904675 48.0565391 14.48828125 51.97851562 C13.6641385 59.65292003 12.83399732 67.32665958 12 75 C12.77582428 74.22384842 13.55164856 73.44769684 14.35098267 72.64802551 C16.84046511 70.15947516 19.33711387 67.67838424 21.8359375 65.19921875 C23.68236349 63.36205135 25.52871546 61.52480955 27.375 59.6875 C28.29539062 58.77548828 29.21578125 57.86347656 30.1640625 56.92382812 C34.83106905 52.27348945 39.37355196 47.58595047 43.64697266 42.56958008 C46.69649464 39.03198051 46.69649464 39.03198051 49.15478516 38.77294922 C50.02409668 38.78342285 50.8934082 38.79389648 51.7890625 38.8046875 C52.73007813 38.81113281 53.67109375 38.81757813 54.640625 38.82421875 C56.11789062 38.84935547 56.11789062 38.84935547 57.625 38.875 C58.61757812 38.88402344 59.61015625 38.89304688 60.6328125 38.90234375 C63.08879326 38.92595895 65.54423691 38.96058581 68 39 C63.82222235 43.98592875 59.46872723 48.66704284 54.8515625 53.24609375 C54.19417084 53.90207047 53.53677917 54.55804718 52.85946655 55.23390198 C50.78367138 57.30415268 48.70440573 59.37087651 46.625 61.4375 C45.2067992 62.85067862 43.78882824 64.26408794 42.37109375 65.67773438 C38.91671223 69.12116065 35.4592163 72.56143099 32 76 C35.08156009 81.49126417 35.08156009 81.49126417 38.55859375 86.734375 C39.02088379 87.38180664 39.48317383 88.02923828 39.95947266 88.69628906 C40.44722168 89.37401367 40.9349707 90.05173828 41.4375 90.75 C42.49711966 92.23885373 43.5556718 93.72846765 44.61328125 95.21875 C45.16322754 95.99347656 45.71317383 96.76820313 46.27978516 97.56640625 C49.25519402 101.77572722 52.19723696 106.00743735 55.125 110.25 C55.95922485 111.44641113 55.95922485 111.44641113 56.81030273 112.66699219 C57.32923096 113.42141602 57.84815918 114.17583984 58.3828125 114.953125 C58.84059082 115.61473633 59.29836914 116.27634766 59.77001953 116.95800781 C61.13603798 119.2258479 62.07774409 121.52234578 63 124 C43.04256679 126.32368013 43.04256679 126.32368013 37.13964844 122.93066406 C33.95397231 119.75834507 32.22709647 115.6808185 30.34814453 111.65185547 C27.80689629 106.65311618 24.62166302 102.02468921 21.55322266 97.33786011 C19.76092516 94.58632068 18.00655646 91.81106767 16.24609375 89.0390625 C14.33704679 85.85324745 14.33704679 85.85324745 12 83 C10.37163141 86.25673718 10.40970897 89.88756031 10.0625 93.47265625 C9.88802234 95.19335953 9.71354312 96.91406265 9.5390625 98.63476562 C9.26803911 101.35608687 8.9985121 104.07755227 8.72949219 106.79907227 C8.46909913 109.41981006 8.20348682 112.03998125 7.9375 114.66015625 C7.85830322 115.47992447 7.77910645 116.29969269 7.69750977 117.14430237 C7.11292306 122.88707694 7.11292306 122.88707694 6 124 C4.58429877 124.08651611 3.164405 124.10704904 1.74609375 124.09765625 C0.89208984 124.09443359 0.03808594 124.09121094 -0.84179688 124.08789062 C-1.73962891 124.07951172 -2.63746094 124.07113281 -3.5625 124.0625 C-4.46419922 124.05798828 -5.36589844 124.05347656 -6.29492188 124.04882812 C-8.53001634 124.03700223 -10.76496493 124.01968245 -13 124 C-13.10394799 117.4523148 -12.72506044 111.11279424 -12.02197266 104.60595703 C-11.91789597 103.60794067 -11.81381927 102.60992432 -11.70658875 101.58166504 C-11.36376068 98.30653573 -11.01412926 95.03217539 -10.6640625 91.7578125 C-10.4219394 89.46535264 -10.18011271 87.17286146 -9.93856812 84.88034058 C-9.43212261 80.0838004 -8.92234683 75.28762923 -8.41015625 70.49169922 C-7.75633201 64.36739307 -7.11039887 58.24228587 -6.46692848 52.11688423 C-5.96895157 47.38430487 -5.46695716 42.65215822 -4.96375656 37.92013168 C-4.72417637 35.66298789 -4.48577687 33.40571844 -4.24861526 31.14831924 C-3.91538625 27.98271177 -3.57678241 24.81772218 -3.23681641 21.65283203 C-3.14114883 20.73404266 -3.04548126 19.8152533 -2.94691467 18.86862183 C-2.25627259 12.51195599 -1.19886925 6.28110738 0 0 Z " fill="#262626" transform="translate(1024,186)"/>
<path d="M0 0 C6.6 0 13.2 0 20 0 C19.6390625 3.19558594 19.278125 6.39117187 18.90625 9.68359375 C18.55653096 12.83773199 18.21000619 15.99220632 17.86376953 19.14672852 C17.6245801 21.31050996 17.38216014 23.47393716 17.13623047 25.63696289 C13.19830938 48.45804445 13.19830938 48.45804445 18 70 C22.34646369 73.1752061 27.87356994 72.45940981 33 72 C38.88665592 70.23400322 44.66465213 66.68430325 48.0300293 61.375 C49.35764173 58.12430437 49.6528925 54.86495511 50 51.40234375 C50.12093269 50.28799706 50.12093269 50.28799706 50.24430847 49.15113831 C50.50343323 46.74730168 50.75175171 44.34248185 51 41.9375 C51.17547239 40.29419425 51.35166121 38.65096484 51.52856445 37.0078125 C52.02897716 32.33955863 52.51695398 27.6700797 53 23 C53.11907715 21.84902832 53.2381543 20.69805664 53.36083984 19.51220703 C53.46219238 18.52978027 53.56354492 17.54735352 53.66796875 16.53515625 C53.75884766 15.65802979 53.84972656 14.78090332 53.94335938 13.87719727 C54.10066576 12.34550499 54.25457549 10.81345816 54.40429688 9.28100586 C54.72756926 6.0675057 55.21277061 3.14891755 56 0 C62.6 0 69.2 0 76 0 C74.99883219 10.19744031 73.99177842 20.39425249 72.97441292 30.5900898 C72.50222041 35.32468032 72.03259017 40.05949562 71.56884766 44.79492188 C71.12103696 49.36668523 70.66645397 53.93772944 70.20721054 58.508358 C70.03337198 60.25037707 69.86195583 61.99263967 69.6930275 63.73514175 C69.45561078 66.17975236 69.20951766 68.62334741 68.96142578 71.06689453 C68.89381042 71.78403122 68.82619507 72.50116791 68.75653076 73.24003601 C68.32368427 77.39762079 67.46853804 81.08741109 66 85 C63.35409986 85.02684679 60.70846904 85.04676357 58.0625 85.0625 C57.30775391 85.07087891 56.55300781 85.07925781 55.77539062 85.08789062 C53.85005687 85.09652441 51.92464419 85.05224333 50 85 C49 84 49 84 48.90234375 81.49609375 C48.91394531 80.48675781 48.92554688 79.47742188 48.9375 78.4375 C48.94652344 77.42558594 48.95554687 76.41367187 48.96484375 75.37109375 C48.97644531 74.58863281 48.98804688 73.80617188 49 73 C48.61070312 73.44730469 48.22140625 73.89460938 47.8203125 74.35546875 C41.25497042 81.4502739 33.65277593 85.55704949 23.94921875 86.203125 C17.36576346 86.29773753 11.82338608 86.25169966 6 83 C5.30003906 82.60941406 4.60007812 82.21882813 3.87890625 81.81640625 C-0.76863355 78.80616487 -3.60993367 75.60189706 -5.30395508 70.29296875 C-6.1354031 66.35941179 -6.26351547 62.57109966 -6.24609375 58.5703125 C-6.24375229 57.74796616 -6.24141083 56.92561981 -6.23899841 56.07835388 C-6.10181962 45.66766956 -4.81962768 35.38576714 -3.5625 25.0625 C-3.329139 23.06326044 -3.09671283 21.06391153 -2.86523438 19.06445312 C-2.64146766 17.15875503 -2.41688976 15.25315197 -2.19140625 13.34765625 C-2.03509483 12.02436058 -2.03509483 12.02436058 -1.87562561 10.67433167 C-1.77559738 9.85504684 -1.67556915 9.03576202 -1.57250977 8.19165039 C-1.48590591 7.47618546 -1.39930206 6.76072052 -1.31007385 6.02357483 C-0.99884821 3.99248332 -0.49836168 1.99344671 0 0 Z " fill="#262626" transform="translate(925,225)"/>
<path d="M0 0 C-0.30598678 3.45894228 -0.62089228 6.917015 -0.9375 10.375 C-1.02451172 11.35984375 -1.11152344 12.3446875 -1.20117188 13.359375 C-1.28818359 14.30039063 -1.37519531 15.24140625 -1.46484375 16.2109375 C-1.543396 17.08024902 -1.62194824 17.94956055 -1.70288086 18.84521484 C-2 21 -2 21 -3 23 C4.92 23 12.84 23 21 23 C21 32 21 32 19 36 C11.41 36 3.82 36 -4 36 C-4.5837924 42.25412276 -4.5837924 42.25412276 -5.16699219 48.50830078 C-5.58807298 52.94739579 -6.02985129 57.37933538 -6.578125 61.8046875 C-7.51459095 69.36946106 -8.17934508 76.80775297 -8.1875 84.4375 C-8.1887085 85.51209473 -8.1887085 85.51209473 -8.18994141 86.60839844 C-8.15650473 89.67119759 -7.97567158 92.07298525 -7 95 C-1.06484672 95.86798684 3.31737559 96.30010988 9 94 C10.32 94 11.64 94 13 94 C13.99 97.3 14.98 100.6 16 104 C4.7749964 108.63966816 -7.12563552 111.68253241 -19 107 C-24.32323785 103.75841742 -27.08062562 99.94061183 -29 94 C-29.25948812 91.31002575 -29.37867431 88.90880944 -29.30859375 86.234375 C-29.2985582 85.50329529 -29.28852264 84.77221558 -29.27818298 84.01898193 C-29.08258954 75.37758926 -28.09172703 66.82423241 -27.0625 58.25 C-26.87742529 56.63551159 -26.69317767 55.02092814 -26.50976562 53.40625 C-25.83564844 47.55783302 -25.15596756 41.77983779 -24 36 C-27.63 35.67 -31.26 35.34 -35 35 C-34.67 31.04 -34.34 27.08 -34 23 C-30.04 23 -26.08 23 -22 23 C-21.93941406 22.07058594 -21.87882812 21.14117187 -21.81640625 20.18359375 C-21.73261719 18.94738281 -21.64882812 17.71117187 -21.5625 16.4375 C-21.48128906 15.21933594 -21.40007812 14.00117188 -21.31640625 12.74609375 C-21.0105741 9.12519214 -20.5497926 5.58982228 -20 2 C-17.60468244 1.66254646 -15.20885732 1.3299171 -12.8125 1 C-11.80219727 0.85691406 -11.80219727 0.85691406 -10.77148438 0.7109375 C-7.14544101 0.21567304 -3.6551381 -0.04413752 0 0 Z " fill="#262626" transform="translate(1130,202)"/>
<path d="M0 0 C1.2077558 3.62326739 0.54311128 4.64146369 -1 8 C-2.32 8 -3.64 8 -5 8 C-5 8.66 -5 9.32 -5 10 C-5.66 10 -6.32 10 -7 10 C-7.226875 10.556875 -7.45375 11.11375 -7.6875 11.6875 C-9.35896766 14.63246684 -11.55276352 16.68156544 -14 19 C-14 14.77333748 -12.11938062 13.65194776 -9.25 10.625 C-6.00754421 7.18344605 -2.90478503 3.7327845 0 0 Z " fill="#505B9D" transform="translate(187,71)"/>
<path d="" fill="#6672B0" transform="translate(0,0)"/>
</svg>
